<svg xmlns="http://www.w3.org/2000/svg" viewBox="0 0 64 64" width="64" height="64" role="img" aria-label="new-game">
  <defs>
    <linearGradient id="ln_new_game_stroke" x1="8" y1="8" x2="56" y2="56" gradientUnits="userSpaceOnUse">
      <stop offset="0" stop-color="#FFE6FF"/>
      <stop offset="0.38" stop-color="#FF7AE6"/>
      <stop offset="1" stop-color="#8D6BFF"/>
    </linearGradient>
    <filter id="ln_new_game_glow" x="-45%" y="-45%" width="190%" height="190%">
      <feGaussianBlur stdDeviation="1.6" result="blur"/>
      <feMerge>
        <feMergeNode in="blur"/>
        <feMergeNode in="SourceGraphic"/>
      </feMerge>
    </filter>
  </defs>
  <g fill="none" stroke="url(#ln_new_game_stroke)" stroke-width="3.2" stroke-linecap="round" stroke-linejoin="round" filter="url(#ln_new_game_glow)">
<path d="M17 34 C13 34 10 38 9 44 C8 50 12 54 17 50 L24 44 H40 L47 50 C52 54 56 50 55 44 C54 38 51 34 47 34 Z"/>
<path d="M24 34 V26 C24 21 28 18 32 18 C36 18 40 21 40 26 V34"/>
<path d="M21 42 H31"/><path d="M26 37 V47"/>
<path d="M42 40 H42.1"/><path d="M48 45 H48.1"/>
  </g>
</svg>
