<svg xmlns="http://www.w3.org/2000/svg" viewBox="0 0 64 64" width="64" height="64" role="img" aria-label="thinking">
  <defs>
    <linearGradient id="ln_thinking_stroke" x1="8" y1="8" x2="56" y2="56" gradientUnits="userSpaceOnUse">
      <stop offset="0" stop-color="#FFE6FF"/>
      <stop offset="0.38" stop-color="#FF7AE6"/>
      <stop offset="1" stop-color="#8D6BFF"/>
    </linearGradient>
    <filter id="ln_thinking_glow" x="-45%" y="-45%" width="190%" height="190%">
      <feGaussianBlur stdDeviation="1.6" result="blur"/>
      <feMerge>
        <feMergeNode in="blur"/>
        <feMergeNode in="SourceGraphic"/>
      </feMerge>
    </filter>
  </defs>
  <g fill="none" stroke="url(#ln_thinking_stroke)" stroke-width="3.2" stroke-linecap="round" stroke-linejoin="round" filter="url(#ln_thinking_glow)">
<path d="M24 46 C16 45 11 39 11 31 C11 23 17 17 25 17 C28 12 37 12 40 18 C47 19 53 25 53 33 C53 42 46 48 37 48"/>
<path d="M24 46 V56 H37 V48"/>
<path d="M25 24 C19 25 18 34 25 36"/>
<path d="M39 23 C45 25 46 35 39 38"/>
<path d="M32 19 V43"/>
  </g>
</svg>
