<svg xmlns="http://www.w3.org/2000/svg" viewBox="0 0 64 64" width="64" height="64" role="img" aria-label="theme">
  <defs>
    <linearGradient id="ln_theme_stroke" x1="8" y1="8" x2="56" y2="56" gradientUnits="userSpaceOnUse">
      <stop offset="0" stop-color="#F4E7D3"/>
      <stop offset="0.38" stop-color="#C29A63"/>
      <stop offset="1" stop-color="#76583D"/>
    </linearGradient>
    <filter id="ln_theme_glow" x="-45%" y="-45%" width="190%" height="190%">
      <feGaussianBlur stdDeviation="0.7" result="blur"/>
      <feMerge>
        <feMergeNode in="blur"/>
        <feMergeNode in="SourceGraphic"/>
      </feMerge>
    </filter>
  </defs>
  <g fill="none" stroke="url(#ln_theme_stroke)" stroke-width="3.2" stroke-linecap="round" stroke-linejoin="round" filter="url(#ln_theme_glow)">
<path d="M42 11 C32 13 25 22 25 32 C25 43 34 52 45 52 C48 52 51 51 54 50 C49 56 41 59 32 56 C21 53 13 43 14 31 C15 19 25 10 42 11 Z"/>
<path d="M18 16 L20 21 L25 23 L20 25 L18 30 L16 25 L11 23 L16 21 Z"/>
  </g>
</svg>
