<svg xmlns="http://www.w3.org/2000/svg" width="540" height="960" viewBox="0 0 540 960">
  <defs>
    <linearGradient id="bg" x1="0" y1="0" x2="0" y2="1">
      <stop offset="0" stop-color="#08060d"/>
      <stop offset="0.45" stop-color="#17101d"/>
      <stop offset="1" stop-color="#050408"/>
    </linearGradient>
    <radialGradient id="violet" cx="50%" cy="45%" r="55%">
      <stop offset="0" stop-color="#b65cff" stop-opacity="0.34"/>
      <stop offset="0.45" stop-color="#6b269b" stop-opacity="0.16"/>
      <stop offset="1" stop-color="#12091c" stop-opacity="0"/>
    </radialGradient>
    <linearGradient id="metal" x1="0" y1="0" x2="1" y2="1">
      <stop offset="0" stop-color="#d6b66d"/>
      <stop offset="0.25" stop-color="#6f4c2b"/>
      <stop offset="0.55" stop-color="#2b2020"/>
      <stop offset="0.82" stop-color="#95723e"/>
      <stop offset="1" stop-color="#e1c77d"/>
    </linearGradient>
    <radialGradient id="gem" cx="40%" cy="25%" r="75%">
      <stop offset="0" stop-color="#f0d9ff"/>
      <stop offset="0.28" stop-color="#c06dff"/>
      <stop offset="0.68" stop-color="#6d279e"/>
      <stop offset="1" stop-color="#21102d"/>
    </radialGradient>
    <pattern id="stone" width="72" height="56" patternUnits="userSpaceOnUse">
      <rect width="72" height="56" fill="#151219"/>
      <path d="M0 27 H72 M34 0 V27 M12 27 V56 M57 27 V56" stroke="#29232d" stroke-width="2" opacity="0.55"/>
      <path d="M0 29 H72 M36 0 V25 M14 31 V56 M59 31 V56" stroke="#08070b" stroke-width="2" opacity="0.72"/>
    </pattern>
  </defs>

  <rect width="540" height="960" fill="url(#bg)"/>
  <rect width="540" height="960" fill="url(#stone)" opacity="0.42"/>
  <ellipse cx="270" cy="430" rx="280" ry="410" fill="url(#violet)"/>

  <path d="M55 960 V250 Q55 75 270 34 Q485 75 485 250 V960" fill="none" stroke="#050407" stroke-width="48" opacity="0.90"/>
  <path d="M55 960 V250 Q55 75 270 34 Q485 75 485 250 V960" fill="none" stroke="url(#metal)" stroke-width="8" opacity="0.88"/>
  <path d="M72 960 V260 Q72 96 270 57 Q468 96 468 260 V960" fill="none" stroke="#3a303b" stroke-width="5" opacity="0.72"/>

  <g opacity="0.72">
    <path d="M22 0 C82 96 40 188 94 276 C126 329 74 414 110 495" fill="none" stroke="#08070a" stroke-width="12"/>
    <path d="M518 0 C458 96 500 188 446 276 C414 329 466 414 430 495" fill="none" stroke="#08070a" stroke-width="12"/>
    <path d="M22 0 C82 96 40 188 94 276 C126 329 74 414 110 495" fill="none" stroke="#6f5b45" stroke-width="3" stroke-dasharray="10 9"/>
    <path d="M518 0 C458 96 500 188 446 276 C414 329 466 414 430 495" fill="none" stroke="#6f5b45" stroke-width="3" stroke-dasharray="10 9"/>
  </g>

  <g opacity="0.22" fill="#a84eff">
    <circle cx="84" cy="352" r="38"/>
    <circle cx="456" cy="352" r="38"/>
    <circle cx="270" cy="78" r="46"/>
  </g>
  <g>
    <path d="M84 319 L105 351 L84 386 L63 351 Z" fill="#170c20" stroke="url(#metal)" stroke-width="4"/>
    <path d="M84 329 L98 351 L84 375 L70 351 Z" fill="url(#gem)"/>
    <path d="M456 319 L477 351 L456 386 L435 351 Z" fill="#170c20" stroke="url(#metal)" stroke-width="4"/>
    <path d="M456 329 L470 351 L456 375 L442 351 Z" fill="url(#gem)"/>
    <path d="M270 36 L299 77 L270 120 L241 77 Z" fill="#170c20" stroke="url(#metal)" stroke-width="5"/>
    <path d="M270 49 L289 77 L270 106 L251 77 Z" fill="url(#gem)"/>
  </g>

  <rect x="24" y="18" width="492" height="924" rx="22" fill="none" stroke="#0b090e" stroke-width="10"/>
  <rect x="28" y="22" width="484" height="916" rx="19" fill="none" stroke="url(#metal)" stroke-width="3" opacity="0.76"/>

  <path d="M36 168 H112 L129 185 H411 L428 168 H504" fill="none" stroke="url(#metal)" stroke-width="3" opacity="0.64"/>
  <path d="M36 818 H112 L129 801 H411 L428 818 H504" fill="none" stroke="url(#metal)" stroke-width="3" opacity="0.64"/>

  <rect x="0" y="0" width="540" height="960" fill="#08060d" opacity="0.18"/>
</svg>
