<svg xmlns="http://www.w3.org/2000/svg" width="72" height="72" viewBox="0 0 72 72">
  <defs>
    <linearGradient id="metal" x1="0" y1="0" x2="1" y2="1">
      <stop offset="0" stop-color="#d7b66b"/>
      <stop offset="0.28" stop-color="#72502b"/>
      <stop offset="0.58" stop-color="#33251c"/>
      <stop offset="0.82" stop-color="#9d7741"/>
      <stop offset="1" stop-color="#e2c77d"/>
    </linearGradient>
    <linearGradient id="iron" x1="0" y1="0" x2="0" y2="1">
      <stop offset="0" stop-color="#514955"/>
      <stop offset="0.45" stop-color="#1d1921"/>
      <stop offset="1" stop-color="#09080c"/>
    </linearGradient>
    <radialGradient id="gem" cx="50%" cy="35%" r="70%">
      <stop offset="0" stop-color="#f0d5ff"/>
      <stop offset="0.30" stop-color="#b968ff"/>
      <stop offset="0.72" stop-color="#6b259d"/>
      <stop offset="1" stop-color="#261037"/>
    </radialGradient>
  </defs>

  <rect x="1.5" y="1.5" width="69" height="65" rx="8" fill="none" stroke="#08070a" stroke-width="3"/>
  <rect x="3" y="3" width="66" height="62" rx="7" fill="none" stroke="url(#metal)" stroke-width="3"/>
  <rect x="6" y="6" width="60" height="56" rx="5" fill="none" stroke="url(#iron)" stroke-width="2"/>
  <path d="M10 13 L13 9 L19 9 L16 12 L19 15 L13 15 Z" fill="url(#metal)" opacity="0.95"/>
  <path d="M62 13 L59 9 L53 9 L56 12 L53 15 L59 15 Z" fill="url(#metal)" opacity="0.95"/>
  <path d="M10 54 L13 58 L19 58 L16 55 L19 52 L13 52 Z" fill="url(#metal)" opacity="0.95"/>
  <path d="M62 54 L59 58 L53 58 L56 55 L53 52 L59 52 Z" fill="url(#metal)" opacity="0.95"/>

  <path d="M36 1 L42 7 L36 13 L30 7 Z" fill="#1a101f" stroke="url(#metal)" stroke-width="1.5"/>
  <path d="M36 3.5 L39.5 7 L36 10.5 L32.5 7 Z" fill="url(#gem)"/>
  <path d="M36 55 L42 61 L36 67 L30 61 Z" fill="#1a101f" stroke="url(#metal)" stroke-width="1.5"/>
  <path d="M36 57.5 L39.5 61 L36 64.5 L32.5 61 Z" fill="url(#gem)"/>

  <circle cx="7" cy="7" r="1.4" fill="#e6c87b"/>
  <circle cx="65" cy="7" r="1.4" fill="#e6c87b"/>
  <circle cx="7" cy="61" r="1.4" fill="#e6c87b"/>
  <circle cx="65" cy="61" r="1.4" fill="#e6c87b"/>
</svg>
